# xmcd
#
# Track frame offsets:
# 150
# 15274
# 28999
# 47093
# 70992
# 92318
# 103790
# 121860
# 137038
# 152277
# 167324
# 190762
#
# Disc length: 2751 seconds
#
# Revision: 0
# Processed by: cddbd v1.5.1PL0 Copyright (c) Steve Scherf et al.
# Submitted via: Axialis_AX_CDPlayer 2.6
#
DISCID=880abd0c
DTITLE=Troy Olsen - Troy Olsen
DYEAR=1900
DGENRE=
TTITLE0=The Hank Song
TTITLE1=She's Gonna Ruin My Bad Reputation
TTITLE2=You're The One
TTITLE3=I'll Sleep When I'm Dead
TTITLE4='59 Cadillac
TTITLE5=Set'em Up Joe
TTITLE6=I've Still Got My Truck
TTITLE7=It's A Long Way Across Texas
TTITLE8=I'm On Fire
TTITLE9=Somethin' In The Air
TTITLE10=Rock This Country
TTITLE11=The Price I Pay
EXTD=
EXTT0=
EXTT1=
EXTT2=
EXTT3=
EXTT4=
EXTT5=
EXTT6=
EXTT7=
EXTT8=
EXTT9=
EXTT10=
EXTT11=
PLAYORDER=
